<svg xmlns="http://www.w3.org/2000/svg" width="256" height="256" viewBox="0 0 100 100"><path fill="#ffffff" d="M34.38 42.09L34.38 42.09L29.06 42.09Q25.68 42.09 24.18 40.35Q22.69 38.62 22.69 35.76L22.69 35.76Q22.69 29.43 32.14 29.43L32.14 29.43Q41.01 29.43 45.50 32.07L45.50 32.07L42.95 34.00Q39.87 32.60 32.14 32.60L32.14 32.60Q28.36 32.60 27.06 33.43Q25.76 34.27 25.76 35.76Q25.76 37.26 26.47 38.09Q27.17 38.93 29.06 38.93L29.06 38.93L34.51 38.93Q40.44 38.93 45.21 40.95Q49.98 42.97 53.05 46.46Q56.13 49.96 57.76 54.50Q59.38 59.05 59.38 64.24L59.38 64.24Q59.38 68.46 58.20 72.24Q57.01 76.02 54.61 79.18Q52.22 82.34 48.86 84.65Q45.50 86.96 40.86 88.25Q36.22 89.55 30.82 89.55L30.82 89.55Q22.34 89.55 14.93 86.98Q7.53 84.41 2.60 79.79L2.60 79.79L5.15 77.91Q9.64 81.95 16.38 84.17Q23.13 86.39 30.82 86.39L30.82 86.39Q36.84 86.39 41.69 84.65Q46.55 82.92 49.69 79.88Q52.83 76.85 54.53 72.85Q56.22 68.85 56.22 64.24L56.22 64.24Q56.22 58.13 53.76 53.19Q51.30 48.24 46.26 45.17Q41.23 42.09 34.38 42.09ZM29.06 45.25L29.06 45.25L34.07 45.25Q42.99 45.25 48.02 50.70Q53.05 56.15 53.05 64.24L53.05 64.24Q53.05 72.46 47.21 77.84Q41.36 83.22 30.82 83.22L30.82 83.22Q23.79 83.22 17.68 81.29Q11.57 79.36 7.53 75.84L7.53 75.84L9.99 73.86Q13.59 76.81 19.06 78.43Q24.53 80.06 30.82 80.06L30.82 80.06Q40.09 80.06 44.99 75.62Q49.89 71.18 49.89 64.24L49.89 64.24Q49.89 57.38 45.78 52.90Q41.67 48.42 34.03 48.42L34.03 48.42L29.06 48.42Q22.64 48.42 19.44 44.90Q16.23 41.39 16.23 35.76Q16.23 30.14 20.21 26.62Q24.18 23.11 32.14 23.11L32.14 23.11Q37.72 23.11 42.51 24.40Q47.30 25.70 50.42 28.12L50.42 28.12L47.91 30.05Q42.42 26.27 32.14 26.27L32.14 26.27Q25.50 26.27 22.45 28.88Q19.39 31.50 19.39 35.76L19.39 35.76Q19.39 40.07 21.66 42.66Q23.92 45.25 29.06 45.25ZM29.06 51.58L29.06 51.58L33.89 51.58Q40.31 51.58 43.52 55.14Q46.73 58.70 46.73 64.24L46.73 64.24Q46.73 69.86 42.75 73.38Q38.77 76.89 30.82 76.89L30.82 76.89Q25.24 76.89 20.42 75.60Q15.61 74.30 12.49 71.88L12.49 71.88L15.00 69.95Q20.49 73.73 30.82 73.73L30.82 73.73Q37.45 73.73 40.51 71.12Q43.56 68.50 43.56 64.24Q43.56 59.98 41.28 57.36Q38.99 54.75 33.85 54.75L33.85 54.75L29.06 54.75Q20.05 54.75 14.98 49.36Q9.90 43.98 9.90 35.76Q9.90 27.54 15.74 22.16Q21.59 16.78 32.14 16.78L32.14 16.78Q39.17 16.78 45.25 18.71Q51.34 20.64 55.38 24.16L55.38 24.16L52.92 26.14Q49.32 23.19 43.87 21.57Q38.42 19.94 32.14 19.94L32.14 19.94Q22.86 19.94 17.96 24.38Q13.06 28.82 13.06 35.76L13.06 35.76Q13.06 42.66 17.19 47.12Q21.33 51.58 29.06 51.58ZM29.06 57.91L29.06 57.91L33.89 57.91Q37.28 57.91 38.77 59.67Q40.27 61.43 40.27 64.24L40.27 64.24Q40.27 70.57 30.82 70.57L30.82 70.57Q21.90 70.57 17.41 67.93L17.41 67.93L19.96 66.00Q23.04 67.40 30.82 67.40L30.82 67.40Q34.60 67.40 35.89 66.57Q37.19 65.73 37.19 64.24L37.19 64.24Q37.19 62.79 36.46 61.93Q35.74 61.07 33.81 61.07L33.81 61.07L29.06 61.07Q23.00 61.07 18.10 59.10Q13.20 57.12 10.05 53.65Q6.91 50.18 5.24 45.61Q3.57 41.04 3.57 35.76L3.57 35.76Q3.57 31.54 4.76 27.76Q5.94 23.98 8.34 20.82Q10.73 17.66 14.10 15.35Q17.46 13.04 22.09 11.75Q26.73 10.45 32.14 10.45L32.14 10.45Q40.62 10.45 48.00 13.02Q55.38 15.59 60.31 20.21L60.31 20.21L57.76 22.09Q53.27 18.05 46.55 15.83Q39.83 13.61 32.14 13.61L32.14 13.61Q26.12 13.61 21.26 15.35Q16.40 17.08 13.26 20.12Q10.12 23.15 8.43 27.15Q6.74 31.15 6.74 35.76L6.74 35.76Q6.74 41.96 9.24 46.92Q11.75 51.89 16.89 54.90Q22.03 57.91 29.06 57.91ZM69.75 70.57L69.75 70.57L64.35 70.57L64.35 67.40L69.75 67.40Q72.08 67.40 73.66 65.64Q75.25 63.89 75.25 60.99L75.25 60.99L75.25 13.61L78.41 13.61L78.41 60.99Q78.41 65.16 75.91 67.86Q73.40 70.57 69.75 70.57ZM69.75 76.89L69.75 76.89L64.35 76.89L64.35 73.73L69.75 73.73Q74.68 73.73 78.13 70.00Q81.57 66.26 81.57 60.99L81.57 60.99L81.57 13.61L84.74 13.61L84.74 60.99Q84.74 67.58 80.37 72.24Q75.99 76.89 69.75 76.89ZM69.75 83.22L69.75 83.22L64.35 83.22L64.35 80.06L69.75 80.06Q77.31 80.06 82.61 74.48Q87.90 68.90 87.90 60.99L87.90 60.99L87.90 13.61L91.07 13.61L91.07 60.99Q91.07 67.01 88.23 72.13Q85.40 77.25 80.48 80.23Q75.55 83.22 69.75 83.22ZM69.75 89.55L69.75 89.55L64.35 89.55L64.35 86.39L69.75 86.39Q74.76 86.39 79.29 84.37Q83.82 82.34 87.09 78.94Q90.36 75.53 92.30 70.83Q94.23 66.13 94.23 60.99L94.23 60.99L94.23 13.61L97.40 13.61L97.40 60.99Q97.40 66.79 95.22 72.06Q93.04 77.33 89.33 81.18Q85.62 85.02 80.50 87.29Q75.38 89.55 69.75 89.55Z"></path></svg>